<svg xmlns="http://www.w3.org/2000/svg" viewBox="0 0 25 25" fill="none"><path fill="#0E7490" d="M10.6 3A2.7 2.7 0 0 1 11.8 1a2.9 2.9 0 0 1 2-.4L22.6 2a2.9 2.9 0 0 1 1.8 1.2 2.7 2.7 0 0 1 .5 2l-2.5 14a2.7 2.7 0 0 1-1.2 1.8 2.9 2.9 0 0 1-2.1.5L10.4 20A2.9 2.9 0 0 1 8.6 19a2.7 2.7 0 0 1-.5-2l2.5-14Z"/><path fill="#164E63" d="M1 9.7c-.2-.7-.2-1.4 0-2 .3-.8.8-1.3 1.5-1.6l8-3.4a3 3 0 0 1 2.2 0c.7.2 1.3.8 1.6 1.4l5.8 13a2.7 2.7 0 0 1-.5 3l-1 .7-8 3.4a3 3 0 0 1-2 0c-.8-.2-1.4-.8-1.7-1.4l-5.8-13Z"/><path fill="#06B6D4" d="M17.9 5h-9a2.8 2.8 0 0 0-2.7 2.7v14.2c0 1.5 1.2 2.7 2.8 2.7h8.9c1.5 0 2.8-1.2 2.8-2.7V7.7c0-1.5-1.3-2.8-2.8-2.8Z"/></svg>